<svg id='Shopping_Jewelry_Diamond_2_24' width='24' height='24' viewBox='0 0 24 24' xmlns='http://www.w3.org/2000/svg' xmlns:xlink='http://www.w3.org/1999/xlink'><rect width='24' height='24' stroke='none' fill='#000000' opacity='0'/>


<g transform="matrix(1.43 0 0 1.43 12 12)" >
<g style="" >
<g transform="matrix(1 0 0 1 0 0.01)" >
<path style="stroke: rgb(0,0,0); stroke-width: 1; stroke-dasharray: none; stroke-linecap: round; stroke-dashoffset: 0; stroke-linejoin: round; stroke-miterlimit: 4; fill: none; fill-rule: nonzero; opacity: 1;" transform=" translate(-7, -7.01)" d="M 10.64 1.54 L 3.36 1.54 C 3.0196125685849653 1.5493466968564673 2.70399749025982 1.7201501510088986 2.51 2 L 0.69 4.52 C 0.4119481339727263 4.9129208484654185 0.4366766979188493 5.444584973307066 0.75 5.8100000000000005 L 6.21 12.1 C 6.3994262591118565 12.344079391043701 6.6910387455143026 12.486893157761227 7 12.486893157761227 C 7.3089612544856974 12.486893157761227 7.600573740888144 12.344079391043701 7.79 12.1 L 13.25 5.81 C 13.563323302081152 5.444584973307066 13.588051866027275 4.9129208484654185 13.31 4.52 L 11.49 2 C 11.29600250974018 1.7201501510088986 10.980387431415034 1.5493466968564673 10.64 1.54 Z" stroke-linecap="round" />
</g>
<g transform="matrix(1 0 0 1 -1.48 0)" >
<polyline style="stroke: rgb(0,0,0); stroke-width: 1; stroke-dasharray: none; stroke-linecap: round; stroke-dashoffset: 0; stroke-linejoin: round; stroke-miterlimit: 4; fill: none; fill-rule: nonzero; opacity: 1;" points="0.96,-5.47 -1.48,-1.69 1.48,5.46 " />
</g>
<g transform="matrix(1 0 0 1 1.49 0)" >
<polyline style="stroke: rgb(0,0,0); stroke-width: 1; stroke-dasharray: none; stroke-linecap: round; stroke-dashoffset: 0; stroke-linejoin: round; stroke-miterlimit: 4; fill: none; fill-rule: nonzero; opacity: 1;" points="-0.94,-5.47 1.49,-1.69 -1.49,5.46 " />
</g>
<g transform="matrix(1 0 0 1 0 -1.69)" >
<line style="stroke: rgb(0,0,0); stroke-width: 1; stroke-dasharray: none; stroke-linecap: round; stroke-dashoffset: 0; stroke-linejoin: round; stroke-miterlimit: 4; fill: none; fill-rule: nonzero; opacity: 1;" x1="-6.48" y1="0" x2="6.48" y2="0" />
</g>
</g>
</g>
</svg>